HIERARCHY
ROOT Bip001_Pelvis
{
  OFFSET 34.4345 95.6767 -26.8758
  CHANNELS 6 Xposition Yposition Zposition Zrotation Xrotation Yrotation
  JOINT Bip001_Spine
  {
    OFFSET 1.4188e-005 10.2191 -0.0116013
    CHANNELS 3 Zrotation Xrotation Yrotation
    JOINT Bip001_L_Thigh
    {
      OFFSET 11.0458 -10.2192 0.0116197
      CHANNELS 3 Zrotation Xrotation Yrotation
      JOINT Bip001_L_Calf
      {
        OFFSET -0.707118 -44.0221 0.360014
        CHANNELS 3 Zrotation Xrotation Yrotation
        JOINT Bip001_L_Foot
        {
          OFFSET -0.651902 -40.5938 -3.56146
          CHANNELS 3 Zrotation Xrotation Yrotation
          JOINT Bip001_L_Toe0
          {
            OFFSET 0.0530839 -10.2181 13.1504
            CHANNELS 3 Zrotation Xrotation Yrotation
            End Site
            {
              OFFSET -1.02532e-005 0 7.55606
            }
          }
        }
      }
    }
    JOINT Bip001_R_Thigh
    {
      OFFSET -11.0458 -10.2191 0.0115893
      CHANNELS 3 Zrotation Xrotation Yrotation
      JOINT Bip001_R_Calf
      {
        OFFSET 0.706994 -44.0221 0.35984
        CHANNELS 3 Zrotation Xrotation Yrotation
        JOINT Bip001_R_Foot
        {
          OFFSET 0.651786 -40.5938 -3.5613
          CHANNELS 3 Zrotation Xrotation Yrotation
          JOINT Bip001_R_Toe0
          {
            OFFSET -0.0531479 -10.2181 13.1504
            CHANNELS 3 Zrotation Xrotation Yrotation
            End Site
            {
              OFFSET -1.02894e-005 0 7.55606
            }
          }
        }
      }
    }
    JOINT Bip001_Spine1
    {
      OFFSET 1.87041e-005 14.5736 1.08638
      CHANNELS 3 Zrotation Xrotation Yrotation
      JOINT Bip001_Spine2
      {
        OFFSET 2.24614e-005 14.5058 -1.69078
        CHANNELS 3 Zrotation Xrotation Yrotation
        JOINT Bip001_Neck
        {
          OFFSET 2.20278e-005 15.3945 -0.489414
          CHANNELS 3 Zrotation Xrotation Yrotation
          JOINT Bip001_L_Clavicle
          {
            OFFSET 6.06036 -0.000579998 0.00836775
            CHANNELS 3 Zrotation Xrotation Yrotation
            JOINT Bip001_L_UpperArm
            {
              OFFSET 11.5509 -0.0600302 0.00193952
              CHANNELS 3 Zrotation Xrotation Yrotation
              JOINT Bip001_L_Forearm
              {
                OFFSET 25.9523 0.0806089 -2.15551
                CHANNELS 3 Zrotation Xrotation Yrotation
                JOINT Bip001_L_Hand
                {
                  OFFSET 32.2475 0.153767 1.63968
                  CHANNELS 3 Zrotation Xrotation Yrotation
                  JOINT Bip001_L_Finger0
                  {
                    OFFSET 6.04639 -2.20976 5.90322
                    CHANNELS 3 Zrotation Xrotation Yrotation
                    End Site
                    {
                      OFFSET 4.22375 -1.43895 0.606485
                    }
                  }
                  JOINT Bip001_L_Finger1
                  {
                    OFFSET 11.0826 -0.704819 -0.198153
                    CHANNELS 3 Zrotation Xrotation Yrotation
                    End Site
                    {
                      OFFSET 6.20027 -0.397518 -0.0787166
                    }
                  }
                }
              }
            }
          }
          JOINT Bip001_R_Clavicle
          {
            OFFSET -6.06037 -0.000563197 0.00835105
            CHANNELS 3 Zrotation Xrotation Yrotation
            JOINT Bip001_R_UpperArm
            {
              OFFSET -11.5509 -0.0599978 0.00190698
              CHANNELS 3 Zrotation Xrotation Yrotation
              JOINT Bip001_R_Forearm
              {
                OFFSET -25.9523 0.0806822 -2.15589
                CHANNELS 3 Zrotation Xrotation Yrotation
                JOINT Bip001_R_Hand
                {
                  OFFSET -32.2475 0.153859 1.63989
                  CHANNELS 3 Zrotation Xrotation Yrotation
                  JOINT Bip001_R_Finger0
                  {
                    OFFSET -6.04641 -2.20976 5.90317
                    CHANNELS 3 Zrotation Xrotation Yrotation
                    End Site
                    {
                      OFFSET -4.22376 -1.43895 0.60647
                    }
                  }
                  JOINT Bip001_R_Finger1
                  {
                    OFFSET -11.0826 -0.704794 -0.198182
                    CHANNELS 3 Zrotation Xrotation Yrotation
                    End Site
                    {
                      OFFSET -6.20028 -0.397504 -0.0787333
                    }
                  }
                }
              }
            }
          }
          JOINT Bip001_Head
          {
            OFFSET 1.09673e-005 11.2744 2.05948
            CHANNELS 3 Zrotation Xrotation Yrotation
            End Site
            {
              OFFSET 2.89576e-005 20.8808 -2.77728e-005
            }
          }
        }
      }
    }
  }
}
MOTION
Frames:	12
Frame Time:	0.04
37.4233 90.1356 -32.5325 -5.39006 -7.86234 6.78474 0.131406 3.71607 0.273619 12.3314 -17.1537 4.90064 -3.71623 43.6788 -6.87003 13.0737 -16.9237 1.30614 1.51787 -7.82197 -0.0601402 -3.77661 -9.18161 -1.6606 6.68018 33.9023 -1.83908 -13.4392 -13.5769 -10.3972 4.98136 -15.1813 4.89957 0.244314 7.43277 0.540405 0.245758 7.43277 0.540382 3.42134 -3.89247 -0.730378 -23.9495 7.44629 -9.79398 -41.7877 34.5703 -3.74161 11.1637 -6.7209 -19.8768 9.76342 1.04001 -1.525 7.95139e-015 -3.18055e-015 3.18055e-015 9.54166e-015 3.18056e-015 -0 13.5525 10.5463 23.6573 54.6844 -53.6695 27.7466 -48.607 11.8663 82.9841 -45.2683 -18.4898 15.7245 -3.18055e-015 -6.36111e-015 -0 -1.32417e-031 -9.54167e-015 -7.95139e-016 -5.81414 -1.44775 1.41824 
37.2069 89.9673 -32.3898 -5.79665 -7.9819 10.8598 -0.00433402 3.53008 0.7493 12.9394 -18.7537 4.88224 -2.05935 44.8203 -10.8845 14.234 -16.9079 1.41989 2.42767 -8.18672 -1.00866 -2.82782 -8.17975 -1.73918 8.27098 33.5007 -3.05544 -14.492 -12.8428 -13.5796 5.07085 -15.3232 4.84698 -0.0552077 7.05981 1.50315 -0.0552144 7.05983 1.50316 4.60622 -3.91022 -3.43761 -25.9075 6.6051 -8.39349 -40.8799 33.7141 -3.76886 9.38968 -8.45759 -20.2034 9.6824 0.541628 -1.04673 3.18055e-015 0 -0 1.59028e-015 -3.18056e-015 -3.18055e-015 11.6596 11.0724 26.3953 54.4815 -49.6934 34.0101 -49.7409 13.608 78.5243 -43.6486 -19.5134 16.4949 -3.18055e-015 0 -1.59028e-015 -3.18055e-015 0 -1.59028e-015 -7.38254 -0.843833 -0.514394 
37.0081 89.9978 -32.0901 -5.88858 -8.31198 14.5036 -0.124432 3.51354 1.07347 13.9327 -19.7084 5.31135 -1.67959 45.3418 -14.1925 13.1532 -17.9678 1.44714 2.81279 -7.34105 -1.7335 -1.9718 -6.85363 -1.87403 9.2775 32.4698 -3.86059 -15.2622 -11.9458 -16.1773 5.16144 -15.441 4.75152 -0.315887 7.02411 2.16068 -0.315899 7.02432 2.16069 4.23101 -5.41539 -5.35267 -26.1455 7.37255 -6.7401 -40.9516 33.6399 -2.84109 8.46516 -10.3241 -20.8877 9.37581 0.163857 -0.853762 -2.38542e-015 9.54166e-015 -0 -2.38542e-015 9.54167e-015 3.18055e-015 10.839 13.0278 29.3856 49.1162 -41.9488 37.4315 -48.5582 12.3248 67.9058 -43.8029 -19.3406 17.4116 3.53112e-031 6.36111e-015 -3.18055e-015 7.06225e-031 1.27222e-014 -3.18055e-015 -7.05554 1.08672 -2.48585 
36.9972 90.043 -31.7277 -5.4697 -8.79109 17.6566 -0.234908 3.58153 1.21318 14.0544 -20.0069 6.6972 0.178786 45.3678 -18.9841 12.4869 -18.3707 1.42017 2.93286 -6.98872 -2.15723 -1.50848 -5.46293 -2.2435 9.60786 31.7104 -4.11244 -15.7538 -11.2957 -18.2763 5.21661 -15.4922 4.67332 -0.5475 7.15724 2.44828 -0.547507 7.15727 2.44828 3.2741 -6.5002 -6.60082 -25.6353 7.8998 -5.04895 -41.9168 34.0537 -1.22284 8.60102 -10.3941 -21.4822 8.88513 -0.0147018 -0.923632 -4.77083e-015 3.18055e-015 -0 -3.97569e-015 3.18056e-015 -3.18055e-015 10.1012 14.3165 32.2968 44.3058 -36.1932 42.2388 -44.689 9.63222 56.3538 -41.8568 -18.9942 18.6205 -1.59028e-015 -3.18055e-015 -3.18055e-015 -1.59028e-015 3.18056e-015 -1.59028e-015 -6.17773 2.41182 -4.06317 
36.9445 90.3999 -31.2655 -5.27416 -8.98524 20.8738 -0.253907 3.54513 1.22267 14.3162 -20.0447 6.12847 -0.156568 44.406 -21.2403 11.9325 -18.0429 1.31361 2.89419 -6.94167 -2.31911 -0.567055 -3.58955 -2.73043 9.1968 29.465 -3.70432 -15.9992 -9.9205 -20.3738 5.23028 -15.4554 4.54599 -0.586861 7.08419 2.46886 -0.585839 7.08404 2.46852 3.18608 -6.72704 -8.06225 -25.3729 7.44946 -3.50614 -43.8268 35.4325 0.671853 9.75507 -8.84154 -21.1576 8.27377 0.286126 -0.7567 -2.38542e-015 0 3.18055e-015 -7.95139e-016 0 -0 8.60664 14.4473 34.3489 52.7919 -37.2497 51.9503 -49.2877 11.4256 55.1388 -40.7762 -14.6312 18.4933 4.77083e-015 0 3.18055e-015 1.59028e-015 0 1.59028e-015 -5.90985 2.59948 -5.59773 
36.9348 90.8706 -31.0468 -5.28535 -8.59465 24.8175 -0.319493 3.30956 0.813411 13.6829 -20.7281 2.01131 -1.72367 43.0177 -20.3152 11.6489 -17.0016 1.17869 2.84766 -7.18471 -2.21368 0.631379 -1.88615 -4.31305 7.88998 26.5539 -2.88029 -15.7979 -8.34831 -21.8783 5.2048 -15.3374 4.42355 -0.6833 6.61433 1.64033 -0.684344 6.61428 1.64882 5.61617 -5.53564 -9.58018 -26.8147 5.21597 -2.31964 -45.9287 35.0813 3.14823 10.9453 -5.25633 -20.7724 6.10569 1.17983 0.194509 7.95139e-016 -3.18055e-015 3.18055e-015 -2.38542e-015 -3.18056e-015 1.59028e-015 8.21828 13.675 34.0788 82.3582 -46.3544 71.5275 -42.9257 11.1566 71.8977 -39.9137 -15.7315 14.1678 7.95139e-016 -6.36111e-015 1.59028e-015 -0 -3.18056e-015 -0 -7.30411 1.3537 -6.08955 
37.6318 91.5095 -30.7029 -3.96898 -8.65569 23.4479 -0.632838 2.98475 0.674966 12.0903 -17.3473 4.06177 0.482746 39.9232 -22.4146 11.8759 -15.8408 1.07282 2.71806 -7.62117 -1.88107 0.218687 0.234376 -3.73194 5.76919 24.4622 -1.83888 -14.959 -7.53567 -21.0057 5.18955 -15.2962 4.41736 -1.29759 5.96152 1.39195 -1.30079 5.96156 1.38688 8.91571 -3.24951 -10.0266 -27.4958 2.18903 -1.91536 -51.7443 33.7937 7.904 10.7175 -3.53879 -20.1125 5.76225 1.6303 0.199606 7.95139e-016 -3.18055e-015 1.59028e-015 -7.95139e-016 -3.18056e-015 1.59028e-015 8.29226 11.597 32.1379 69.6739 -43.8267 65.113 -44.9546 11.6078 69.0502 -36.7765 -14.8531 15.5605 -7.95139e-016 0 -7.95139e-016 -1.59028e-015 0 -7.95139e-016 -9.78481 1.26646 -5.05269 
38.2464 92.144 -30.5531 -2.77954 -9.63292 20.1345 -0.525948 2.8085 0.277109 10.4745 -12.8646 5.61838 1.24336 36.5624 -21.411 12.1404 -14.4697 0.945905 2.52763 -8.14696 -1.5434 -0.727221 2.67571 -4.64741 2.72705 22.2975 -0.343526 -13.4831 -7.63588 -17.4154 5.03529 -15.0205 4.45773 -1.07934 5.61395 0.576678 -1.06779 5.61393 0.57914 6.88513 -2.97012 -8.60609 -26.0299 2.3962 -1.1625 -57.4024 34.4192 13.7055 11.5207 -3.5101 -19.4889 2.18341 0.190714 0.0451403 -1.59028e-015 0 -1.59028e-015 -5.1684e-015 0 -0 6.37968 9.93959 31.8597 53.0411 -37.0441 55.4265 -32.6909 4.03238 58.8677 -28.8608 -14.1966 14.6915 -1.59028e-015 -3.18055e-015 -0 0 0 -0 -7.61827 3.18875 -4.62326 
38.4402 92.881 -30.5856 -2.82352 -9.77479 15.3417 -0.258841 2.81438 0.282654 9.72221 -9.55416 6.86287 0.698497 32.7486 -18.6113 13.1052 -12.2814 0.738048 2.48243 -9.04277 -1.2812 -1.44583 3.68198 -4.40886 0.871874 19.0621 0.376523 -11.7293 -7.28003 -13.5445 4.82845 -14.634 4.49032 -0.531306 5.62703 0.587729 -0.531598 5.62726 0.583274 4.18227 -6.83979 -7.42428 -25.2431 6.52221 0.208054 -58.869 36.3854 14.6934 11.6961 -3.38565 -17.8848 -2.47432 0.325451 0.413413 -5.96354e-016 -6.36111e-015 -0 -1.19271e-015 -9.54167e-015 -0 5.54816 13.1808 32.5682 42.2582 -31.8992 48.9026 -30.3579 -1.12622 54.2813 -27.3284 -14.7756 14.2509 1.59028e-015 3.18055e-015 3.18055e-015 0 3.18056e-015 -0 -4.9522 5.62614 -4.66779 
38.6703 93.5641 -30.7548 -2.69636 -9.49329 11.2756 -0.0570911 2.70447 0.534831 8.61009 -6.8437 7.39534 0.0459017 28.8042 -15.7743 13.6266 -10.1322 0.551226 2.56385 -9.52176 -1.23638 -2.78836 4.39074 -4.60128 0.265593 15.8651 0.609753 -9.98258 -6.82271 -9.93653 4.58922 -14.1605 4.4942 -0.139664 5.40848 1.07413 -0.139665 5.40839 1.07413 4.01546 -8.49197 -7.59488 -26.253 8.21406 0.035369 -59.4239 38.5791 14.5999 11.5502 -2.46599 -16.0001 -3.81613 0.577525 0.726863 3.97569e-016 0 -9.93923e-016 7.95139e-016 0 5.96354e-016 5.05617 14.6115 32.5578 36.8379 -27.7864 45.1582 -29.9126 -2.55551 53.8911 -27.8669 -14.9543 13.3384 1.59028e-015 3.18055e-015 -0 3.18055e-015 3.18056e-015 -0 -4.11566 5.73929 -5.24466 
38.9376 94.1079 -30.9102 -2.03517 -9.36149 8.20403 -0.000787337 2.57821 0.687718 6.98682 -4.2608 7.45115 -0.140342 24.9021 -13.0542 13.1145 -8.46163 0.310084 2.6186 -9.5346 -1.1504 -4.47382 5.03405 -7.01331 -0.417341 13.58 1.08608 -8.08831 -6.91863 -5.44572 4.32049 -13.6204 4.50231 -0.0316465 5.15626 1.37606 -0.0322006 5.15627 1.37679 4.66081 -9.09239 -8.35237 -27.0007 8.54222 0.113808 -59.8843 41.0396 13.8791 11.9339 0.0543411 -14.7675 -3.11376 1.20482 0.574085 -3.97569e-016 3.18055e-015 1.59028e-015 -1.19271e-015 0 -7.95139e-016 4.76237 15.1899 31.784 39.6028 -27.0795 43.7079 -35.1012 2.50416 57.4477 -26.371 -14.6623 12.9264 3.18055e-015 0 -3.18055e-015 3.18055e-015 0 -3.18055e-015 -3.66473 4.98636 -5.9753 
38.8258 94.5506 -31.1058 -2.07219 -9.23596 5.55221 0.0862427 2.54183 0.492796 6.53866 -2.54202 7.99029 -0.407877 22.0678 -10.9616 11.9991 -7.6343 0.205035 2.43826 -9.24998 -0.775412 -4.80829 5.46115 -7.51678 -1.07131 11.0594 1.04419 -6.65025 -6.29754 -2.41725 4.08906 -13.0905 4.40983 0.150803 5.08436 0.983257 0.15111 5.0843 0.98322 4.84753 -8.93843 -8.04 -27.1265 8.34838 0.376904 -58.5442 41.7902 12.2933 12.7696 1.60547 -15.126 -1.19196 1.7465 0.526924 -7.95139e-016 0 2.38542e-015 -3.18055e-015 -3.18056e-015 7.95139e-016 7.41677 16.1556 31.7601 40.239 -27.3056 39.2245 -41.3925 6.82964 63.9804 -26.5566 -13.4625 11.3144 -0 -6.36111e-015 -0 -0 -6.36111e-015 -0 -2.21248 3.55571 -6.05965 
